<svg version="1.1" id="Layer_1" xmlns="http://www.w3.org/2000/svg" xmlns:xlink="http://www.w3.org/1999/xlink" x="0px" y="0px"
	 width="100%" viewBox="0 0 242 220" enable-background="new 0 0 242 220" xml:space="preserve">
<path fill="#000402" opacity="1.000000" stroke="none" 
	d="
M243.000000,72.000000 
	C243.000000,122.000000 243.000000,171.500000 243.000000,221.000000 
	C162.333328,221.000000 81.666664,221.000000 1.000000,221.000000 
	C1.000000,147.666672 1.000000,74.333336 1.000000,1.000000 
	C81.666664,1.000000 162.333328,1.000000 243.000000,1.000000 
	C243.000000,24.500000 243.000000,48.000000 243.000000,72.000000 
M27.460230,84.450020 
	C27.460230,84.450020 27.483452,84.573997 27.954620,84.274597 
	C28.353180,83.900871 28.751738,83.527138 29.075947,83.065636 
	C29.075947,83.065636 29.104792,83.176987 29.766201,83.041435 
	C30.097601,82.747116 30.429003,82.452789 30.903963,82.257973 
	C30.903963,82.257973 31.013357,82.121796 31.864382,82.118141 
	C34.979744,81.750603 38.092316,81.092644 41.210922,81.062668 
	C61.464893,80.867981 81.720184,80.809845 102.716942,80.854706 
	C103.464813,80.786903 104.212692,80.719101 105.619438,80.728035 
	C106.798111,80.193405 107.976784,79.658775 109.086609,79.095032 
	C109.086609,79.095032 109.061981,79.165611 109.689095,79.059525 
	C109.969803,78.757164 110.250511,78.454803 111.129227,77.867233 
	C118.729980,69.213470 115.869415,58.667473 104.082504,54.839752 
	C84.116684,54.857483 64.150864,54.875210 44.047272,54.182331 
	C44.978836,49.186668 49.247276,48.429707 53.973118,47.245041 
	C59.428371,47.258369 64.884293,47.332611 70.338737,47.272415 
	C81.895287,47.144878 93.451057,46.947231 105.559937,46.857498 
	C106.042282,46.623402 106.524628,46.389309 107.685509,46.141491 
	C108.444405,45.689175 109.203293,45.236855 110.595734,44.542797 
	C111.841522,42.818333 113.432465,41.245991 114.271484,39.342255 
	C117.388153,32.270531 113.108360,22.165752 106.613831,21.590332 
	C98.470444,20.868816 90.276894,20.712749 82.104805,20.316441 
	C80.069115,20.217720 78.032715,20.133615 75.646118,20.027155 
	C77.403999,14.916676 80.668633,13.223384 85.003487,13.080982 
	C92.946785,12.820042 100.890617,12.575025 109.623322,12.594400 
	C110.151299,12.463968 110.679276,12.333536 111.555519,12.355564 
	C111.833961,12.361477 112.054184,12.251125 112.786354,12.045296 
	C113.216354,11.714539 113.646347,11.383781 114.015297,11.004082 
	C114.015297,11.004082 114.050049,11.074142 114.723068,10.676078 
	C114.488022,8.766496 114.252975,6.856915 114.000786,5.000424 
	C114.000786,5.000424 114.053108,4.981062 113.535606,4.280506 
	C102.593414,4.416284 91.651230,4.552061 80.850029,4.626563 
	C80.850029,4.626563 80.779266,4.490090 80.064026,4.572311 
	C79.399712,4.835354 78.735397,5.098398 77.405319,5.468175 
	C70.407234,8.549480 66.611717,14.148108 65.178505,21.429832 
	C63.845516,28.202337 65.316544,29.932859 72.183556,29.969553 
	C81.513748,30.019411 90.844536,29.954744 100.174774,30.000360 
	C102.788185,30.013138 105.896873,29.549643 105.987938,33.603016 
	C106.079491,37.678715 103.244713,37.894688 100.180580,37.895348 
	C87.850563,37.898010 75.514793,37.750500 63.193047,38.090279 
	C57.272404,38.253540 51.128414,38.555126 45.528931,40.254745 
	C36.440975,43.013229 31.253859,53.828808 34.352409,62.855362 
	C36.599644,63.233181 38.844734,63.924610 41.094440,63.939960 
	C61.985485,64.082520 82.877319,64.108673 104.274063,64.642143 
	C104.438171,66.860130 104.602272,69.078125 103.873116,71.457489 
	C101.060738,71.604126 98.249062,71.861824 95.435875,71.879486 
	C76.324516,71.999489 57.212849,72.068871 37.236610,72.027451 
	C24.550846,72.495651 17.095051,78.586792 15.007529,90.797249 
	C15.668701,92.883156 16.329872,94.969070 17.299599,97.537453 
	C17.850605,97.621719 18.401609,97.705986 19.877090,98.022141 
	C46.844959,98.043976 73.812828,98.065811 101.300293,98.409081 
	C101.865486,98.540916 102.430679,98.672752 103.667854,98.912483 
	C104.116524,98.977676 104.565186,99.042870 105.036102,99.362030 
	C105.036102,99.362030 105.283424,99.423889 105.276436,99.530518 
	C105.276436,99.530518 105.374977,99.571831 105.587097,100.295235 
	C106.919884,106.220520 102.608398,105.909569 98.322365,106.168793 
	C97.904655,106.218987 97.486954,106.269180 96.137009,106.127121 
	C70.478554,106.177872 44.819263,106.142090 19.162735,106.391197 
	C16.030312,106.421608 12.912736,107.981262 9.870870,108.874718 
	C9.870870,108.874718 9.842726,108.786201 9.188841,108.954781 
	C7.974213,110.523827 6.759585,112.092865 5.612049,113.955574 
	C5.612049,113.955574 5.567624,113.661736 5.085408,114.253960 
	C3.579495,118.850334 3.301260,123.266129 7.085099,127.556519 
	C7.239095,127.862465 7.486065,128.036377 8.009621,128.605911 
	C8.334008,128.770340 8.658395,128.934769 8.975969,129.031784 
	C8.975969,129.031784 8.913075,129.056992 9.243571,129.659821 
	C10.696090,130.295776 12.148607,130.931732 13.607742,131.524048 
	C13.607742,131.524048 13.650823,131.533676 14.351066,131.890884 
	C16.984709,132.160934 19.618015,132.661606 22.252047,132.665466 
	C49.455189,132.705353 76.658455,132.665009 104.411819,133.009750 
	C104.912048,133.433365 105.412270,133.856964 105.945488,135.049118 
	C105.917007,136.325790 105.888535,137.602448 105.999084,139.000000 
	C105.999084,139.000000 105.858154,138.880676 105.321609,139.257080 
	C104.917130,139.779678 104.512642,140.302277 104.203125,140.743637 
	C104.203125,140.743637 104.113159,140.656891 103.155235,140.731689 
	C99.344032,140.821548 95.533104,140.973572 91.721573,140.991089 
	C67.826904,141.100967 43.932106,141.180847 19.290918,141.183456 
	C14.594300,141.996536 14.828046,145.525513 15.288776,148.885239 
	C16.716703,159.297974 25.312815,166.471329 37.216503,166.626434 
	C58.354649,166.901917 79.497475,166.821671 100.638374,166.879318 
	C103.227539,166.886383 105.914871,166.800873 105.980400,170.431702 
	C106.043228,173.912308 103.579811,174.351715 100.872871,174.361618 
	C99.541138,174.366501 98.209419,174.374405 96.877693,174.381348 
	C77.900940,174.480194 58.924175,174.576065 39.947453,174.679794 
	C33.861340,174.713058 32.573956,176.082428 33.193661,182.111923 
	C33.863060,188.624939 36.900410,193.710693 43.051647,197.656662 
	C45.037586,198.401993 47.023529,199.147324 49.503838,200.169403 
	C49.690521,200.140839 49.877205,200.112274 50.561859,200.386383 
	C51.327419,200.435516 52.092983,200.484650 53.686951,200.785019 
	C55.123810,200.762909 56.560665,200.740814 58.922905,200.892868 
	C73.938789,200.969604 88.954666,201.046356 104.110420,201.340469 
	C104.110420,201.340469 104.350410,201.244415 104.746246,201.819092 
	C105.035110,203.525986 105.323975,205.232895 105.151222,207.332367 
	C105.080826,207.521698 105.010437,207.711029 104.148056,208.179535 
	C102.382980,208.447327 100.619774,208.931290 98.852509,208.946594 
	C89.740723,209.025528 80.624184,208.846161 71.518295,209.091293 
	C69.481293,209.146149 67.480392,210.542374 65.246796,211.460587 
	C65.246796,211.460587 65.337967,211.701126 65.030792,212.382889 
	C64.522957,216.170868 65.842995,218.280502 70.919571,217.959320 
	C79.326256,217.971542 87.733887,218.060089 96.139122,217.955658 
	C99.187538,217.917786 102.230209,217.418716 105.683716,217.210770 
	C105.683716,217.210770 106.052513,217.018066 106.570023,217.122543 
	C106.720085,217.030609 106.870140,216.938690 107.706642,216.814621 
	C114.374924,212.941254 116.787514,207.685577 114.954666,201.025223 
	C113.368034,195.259567 108.276749,191.767776 101.203835,191.701569 
	C85.718758,191.556641 70.233315,191.450058 54.747978,191.333527 
	C49.737316,191.295822 45.852905,189.483536 43.262241,183.875168 
	C45.666218,183.875168 47.411579,183.875473 49.156940,183.875107 
	C66.141869,183.871521 83.133537,184.123230 100.106728,183.675125 
	C104.087547,183.570038 108.679337,181.955612 111.792747,179.510849 
	C116.292740,175.977280 116.236938,170.422211 114.127556,165.295013 
	C111.874199,159.817871 107.520226,157.124710 101.591003,157.140198 
	C81.609253,157.192383 61.627506,157.328995 41.645977,157.296753 
	C38.355320,157.291428 34.780724,157.263412 31.866615,156.012711 
	C29.568848,155.026550 28.084995,152.143951 27.121977,150.248108 
	C51.241821,150.253799 75.361740,150.285431 99.481384,150.219254 
	C101.564346,150.213547 103.645523,149.560822 106.401451,149.327881 
	C111.889740,147.359467 115.062805,143.655167 115.198837,137.647507 
	C115.347870,131.065796 112.766815,126.228134 106.016281,123.419220 
	C105.672577,123.402824 105.328865,123.386429 104.067902,123.175735 
	C76.432220,123.157753 48.796463,123.166153 21.160969,123.085007 
	C18.057411,123.075897 13.501149,124.252388 13.619254,119.165344 
	C13.734281,114.210899 18.313158,115.383461 21.386488,115.371399 
	C45.858883,115.275368 70.331810,115.321495 94.804565,115.306190 
	C97.633148,115.304420 100.477959,115.365631 103.287033,115.099686 
	C110.495361,114.417236 115.304688,109.140823 115.233253,102.213852 
	C115.157143,94.833260 110.480469,89.850525 102.084305,89.028580 
	C76.764221,89.002434 51.444141,88.976295 26.138735,88.802361 
	C26.138735,88.802361 25.992119,88.778664 25.807062,88.125938 
	C25.933205,87.431847 26.059347,86.737762 26.085981,86.070160 
	C26.085981,86.070160 26.116598,86.168472 26.598164,85.859642 
	C26.927557,85.390434 27.256952,84.921227 27.460230,84.450020 
M163.760300,123.108665 
	C163.923569,122.817726 164.086823,122.526779 164.879166,121.622261 
	C164.794647,114.251556 164.710129,106.880852 164.220978,98.806686 
	C161.490646,97.288475 157.565292,96.780228 157.288544,100.050346 
	C156.671585,107.340256 157.580032,114.759262 158.049225,122.619186 
	C158.360428,122.753067 158.671646,122.886948 159.412445,123.569710 
	C160.704651,123.482094 161.996857,123.394478 163.760300,123.108665 
M179.917435,190.086563 
	C179.917435,190.086563 179.843979,190.109085 180.350433,190.644745 
	C181.554520,190.662613 182.758606,190.680481 184.674301,190.539200 
	C185.379074,188.934097 186.561050,187.367905 186.695755,185.716293 
	C187.046555,181.415619 187.073868,177.074448 186.978058,172.755035 
	C186.859131,167.392715 183.805191,165.974899 178.226364,169.355728 
	C178.441223,175.970963 178.656082,182.586197 178.903076,189.069717 
	C178.903076,189.069717 178.770340,189.042175 178.935440,189.613159 
	C179.268799,189.795853 179.602173,189.978546 179.917435,190.086563 
M191.879395,79.787361 
	C192.216248,79.904091 192.553085,80.020828 193.589172,80.612885 
	C201.034195,80.686073 208.499832,80.449615 215.916885,80.943161 
	C220.725937,81.263153 223.065613,79.748184 223.118256,74.112404 
	C221.775742,73.404922 220.439621,72.102234 219.089676,72.087769 
	C211.070206,72.001816 203.047531,72.214050 194.463272,72.201378 
	C193.950211,72.392105 193.437149,72.582832 192.347519,72.847519 
	C192.082779,73.119843 191.818054,73.392174 191.910568,73.663628 
	C191.910568,73.663628 191.552216,73.639442 191.070511,74.056625 
	C191.259033,75.815392 191.447556,77.574165 191.874420,79.162132 
	C191.874420,79.162132 191.614594,79.298050 191.879395,79.787361 
M171.682602,111.927147 
	C172.302490,113.838638 172.509247,116.100235 173.711136,117.518517 
	C174.341492,118.262337 176.968689,118.019279 178.251236,117.360130 
	C181.030762,115.931602 180.762009,107.242867 177.239319,104.760178 
	C172.032257,104.008263 171.251358,106.962036 171.682602,111.927147 
M208.953369,99.151237 
	C206.343781,97.255150 203.857071,96.418114 201.425629,100.315063 
	C201.366318,100.866890 201.307007,101.418716 201.043915,102.896194 
	C201.031250,108.347862 200.687592,113.831009 201.201202,119.232635 
	C201.361908,120.922684 203.609100,123.203575 205.326370,123.679291 
	C206.473816,123.997169 209.685059,121.638649 209.717056,120.418716 
	C209.896469,113.572937 209.390472,106.709183 209.074921,99.943138 
	C209.074921,99.943138 209.168671,99.904579 208.953369,99.151237 
M217.544373,116.469406 
	C217.544373,116.469406 217.568222,116.528610 217.695435,117.306206 
	C222.737717,118.737091 224.167404,117.865227 224.391037,113.031761 
	C224.490250,110.887581 224.617859,108.662933 224.151031,106.606850 
	C223.895523,105.481445 222.501358,103.924698 221.489777,103.819344 
	C219.894714,103.653229 216.767075,104.513382 216.756119,104.995155 
	C216.669617,108.802986 217.168365,112.624107 217.544373,116.469406 
M151.237930,5.165923 
	C149.284637,8.344932 148.871246,11.503085 153.485672,11.963128 
	C159.045990,12.517471 164.708588,12.295561 170.307648,12.019252 
	C171.560501,11.957424 173.465439,10.446581 173.739624,9.287980 
	C174.020828,8.099710 172.671021,6.525459 171.115891,4.903414 
	C164.742615,4.978927 158.369324,5.054439 151.237930,5.165923 
M200.693832,149.197250 
	C205.112244,149.389618 209.530655,149.581985 214.697357,149.735977 
	C215.487991,147.922546 216.675644,146.153564 216.885986,144.275162 
	C216.978119,143.452347 215.119476,141.654053 214.068970,141.590881 
	C209.429733,141.311935 204.740067,141.263962 200.120392,141.691376 
	C198.955429,141.799164 197.211472,143.930801 197.143463,145.207520 
	C197.079605,146.405899 198.880203,147.703598 200.693832,149.197250 
M161.267731,168.436539 
	C161.473267,175.408081 161.678802,182.379608 162.008636,189.767319 
	C162.192657,190.035233 162.445694,190.147263 163.264755,190.656982 
	C164.641739,190.501892 166.018707,190.346817 168.126129,189.819885 
	C168.550140,183.782974 169.219650,177.750275 169.323318,171.707870 
	C169.412064,166.534576 167.023926,165.451324 161.267731,168.436539 
M158.078522,140.898499 
	C150.632217,140.847977 143.184631,140.702606 135.740326,140.802124 
	C133.364761,140.833878 130.997864,141.515350 128.218155,142.006409 
	C127.953621,142.183029 127.845039,142.428604 127.333771,143.301941 
	C126.194130,147.426071 127.936943,149.175369 132.033249,149.157455 
	C139.293411,149.125717 146.555267,149.250824 153.813431,149.130722 
	C155.854553,149.096954 157.885284,148.436676 160.618607,147.708618 
	C160.070389,145.533875 159.522186,143.359146 158.078522,140.898499 
M152.359375,72.038254 
	C149.374786,72.333313 147.285843,74.189438 148.270004,76.893982 
	C148.896378,78.615349 151.669342,80.532051 153.576462,80.639145 
	C161.177719,81.065979 168.820435,80.938690 176.439117,80.717522 
	C177.986389,80.672600 180.552979,79.566719 180.783585,78.533470 
	C181.161057,76.842216 180.007614,74.809288 178.808655,72.312050 
	C170.243729,72.275398 161.678802,72.238747 152.359375,72.038254 
M175.721283,217.799973 
	C176.843658,216.026505 178.621460,214.322784 178.820648,212.451080 
	C178.925201,211.468613 176.299408,209.256546 174.847046,209.202591 
	C166.536285,208.893921 158.199005,208.874313 149.892700,209.246490 
	C148.325577,209.316711 145.701187,211.545593 145.642395,212.870560 
	C145.572189,214.453369 147.736588,216.135300 149.869904,217.958633 
	C158.241989,217.900162 166.614059,217.841690 175.721283,217.799973 
M206.720459,166.625839 
	C204.770798,167.339828 201.751495,167.508957 201.061050,168.864395 
	C198.407913,174.072784 204.741318,175.296112 206.390686,178.898193 
	C204.809937,180.438156 202.751877,181.675049 201.914474,183.478683 
	C201.105164,185.221756 201.553665,187.548828 201.449661,189.619370 
	C203.688492,189.680542 206.396606,190.571198 208.066330,189.626495 
	C211.325302,187.782639 214.082886,184.999741 216.899277,182.441818 
	C219.542938,180.040710 220.019150,177.480896 216.887451,174.942245 
	C213.673538,172.336945 210.534103,169.639786 206.720459,166.625839 
M129.483719,176.351425 
	C129.657974,178.047516 129.193253,180.353699 130.123474,181.328033 
	C133.204468,184.555054 136.588028,187.602798 140.289642,190.067261 
	C141.557114,190.911118 145.184845,190.496033 145.812759,189.474731 
	C146.737961,187.969971 146.530136,185.135330 145.714523,183.371246 
	C144.895966,181.600754 142.740921,180.448166 140.453812,178.373734 
	C142.245132,176.963409 143.733185,175.929993 145.057693,174.717880 
	C147.243179,172.717819 148.568863,169.822342 146.040009,167.914230 
	C144.537827,166.780777 140.888367,167.022980 139.066437,168.102142 
	C135.699768,170.096298 132.966873,173.160431 129.483719,176.351425 
M126.428230,43.121403 
	C129.370163,46.456093 132.008911,50.161240 135.405182,52.940800 
	C136.739563,54.032867 139.768402,53.054516 142.025589,53.019032 
	C141.784515,50.810406 141.933060,48.455364 141.175964,46.440655 
	C140.596786,44.899429 138.872604,43.788486 137.516342,42.334614 
	C139.131363,40.522892 141.122177,39.139847 141.802750,37.277893 
	C142.435364,35.547203 142.356689,32.746510 141.309326,31.462698 
	C140.438583,30.395386 136.797760,29.940432 135.955933,30.783621 
	C132.400604,34.344784 129.433273,38.492977 126.428230,43.121403 
M181.522736,54.770176 
	C185.519806,51.428059 189.721191,48.287613 193.364548,44.596371 
	C194.232086,43.717400 193.946182,40.369637 192.955795,39.245762 
	C190.366043,36.306938 187.277573,33.686508 183.990936,31.549765 
	C182.868408,30.819977 180.072433,31.359188 178.968704,32.350971 
	C178.195480,33.045769 178.604462,35.647625 179.190430,37.116600 
	C179.954468,39.032040 181.415802,40.669338 182.535080,42.362717 
	C175.864594,50.721546 175.782944,51.343502 181.522736,54.770176 
M167.131256,41.383999 
	C168.969513,38.843994 170.689713,35.860760 167.676407,33.539707 
	C166.394226,32.552074 162.587845,32.815132 161.497116,33.979343 
	C158.011581,37.699692 154.938889,41.925751 152.421371,46.362045 
	C151.660431,47.702934 152.606262,51.238995 153.908005,52.158016 
	C155.069733,52.978176 158.431137,52.235077 159.710190,51.015720 
	C162.433899,48.419170 164.436035,45.065723 167.131256,41.383999 
M147.034882,119.321838 
	C150.877731,117.051285 152.386124,105.958626 149.013077,103.255417 
	C147.916855,102.376877 145.798096,101.923759 144.525604,102.365814 
	C143.360168,102.770691 142.119812,104.568306 141.945328,105.888710 
	C141.559509,108.808151 141.824051,111.813408 141.821426,114.783661 
	C141.818817,117.756363 143.116470,119.472427 147.034882,119.321838 
M132.647400,80.987244 
	C135.310486,80.728203 138.632843,81.619759 139.181702,77.502365 
	C139.602127,74.348549 138.266144,72.230080 134.981323,72.095436 
	C131.845627,71.966911 127.919434,70.873711 127.057632,75.659203 
	C126.423553,79.180115 128.277725,80.916595 132.647400,80.987244 
M135.687256,109.880997 
	C135.132904,106.206215 132.316193,105.654839 129.896286,106.902206 
	C128.421661,107.662300 127.501610,110.370728 127.304245,112.303253 
	C127.226227,113.067215 129.684235,114.611755 131.164917,114.904922 
	C134.263962,115.518524 135.562302,113.482895 135.687256,109.880997 
M239.183228,108.450836 
	C236.840302,108.071022 234.497375,107.691208 232.154434,107.311386 
	C231.850784,109.284813 230.794479,111.603333 231.489380,113.118942 
	C232.014511,114.264297 235.530014,115.382843 236.380646,114.742172 
	C237.934097,113.572121 238.499619,111.090378 239.183228,108.450836 
M127.131584,211.909500 
	C127.930840,213.850906 128.239868,216.559311 129.688278,217.485077 
	C130.797913,218.194321 134.429901,217.167389 134.990845,215.986649 
	C135.757324,214.373260 134.673798,211.880981 134.383331,209.765472 
	C132.068420,210.228165 129.753494,210.690857 127.131584,211.909500 
M175.347122,141.894272 
	C172.278259,140.826370 169.736847,141.815704 169.291031,144.904663 
	C169.074753,146.403137 170.920746,149.535492 172.080826,149.662338 
	C176.806320,150.178925 181.665207,150.127838 186.385605,149.552734 
	C187.484543,149.418854 188.850235,146.420593 188.895981,144.708298 
	C188.920959,143.773239 186.524902,142.133606 185.066986,141.933945 
	C182.160416,141.535889 179.147842,141.912033 175.347122,141.894272 
M138.837875,12.079817 
	C139.735397,10.221241 141.458939,8.254440 141.234665,6.542836 
	C141.089630,5.435861 138.181076,4.332884 136.352402,3.904257 
	C134.485153,3.466589 132.156387,3.283548 130.525421,4.047482 
	C128.978409,4.772099 127.327080,6.782704 127.144470,8.389502 
	C127.019470,9.489355 129.145828,11.569998 130.600418,11.958278 
	C132.909927,12.574765 135.499069,12.143707 138.837875,12.079817 
M191.248840,115.009857 
	C192.326370,113.695786 194.457245,112.156448 194.235641,111.120224 
	C193.899551,109.548706 192.094360,107.505630 190.602081,107.204361 
	C189.301163,106.941734 186.598465,108.523056 186.221237,109.795433 
	C185.300507,112.901215 187.309601,114.664581 191.248840,115.009857 
z"/>
<path fill="#4BF2A8" opacity="1.000000" stroke="none" 
	d="
M104.960564,80.651299 
	C104.212692,80.719101 103.464813,80.786903 101.974869,80.608406 
	C79.285378,80.264801 57.337906,80.128052 35.390678,80.159111 
	C33.930649,80.161179 32.472420,81.437927 31.013357,82.121796 
	C31.013357,82.121796 30.903963,82.257973 30.519283,82.318115 
	C29.791332,82.644501 29.448061,82.910744 29.104790,83.176987 
	C29.104792,83.176987 29.075947,83.065636 28.818375,83.161766 
	C28.201687,83.696594 27.842569,84.135300 27.483452,84.573997 
	C27.483452,84.573997 27.460230,84.450020 27.228289,84.543945 
	C26.703096,85.148079 26.409847,85.658272 26.116598,86.168472 
	C26.116598,86.168472 26.085981,86.070160 25.913799,86.244080 
	C25.825119,87.204887 25.908619,87.991776 25.992119,88.778664 
	C25.992119,88.778664 26.138735,88.802361 26.450005,89.120728 
	C27.732040,89.623894 28.702593,89.968735 29.673613,89.970055 
	C52.834560,90.001472 75.995575,90.008850 99.156471,89.962997 
	C100.442474,89.960449 101.727501,89.461624 103.012978,89.193802 
	C110.480469,89.850525 115.157143,94.833260 115.233253,102.213852 
	C115.304688,109.140823 110.495361,114.417236 103.287033,115.099686 
	C100.477959,115.365631 97.633148,115.304420 94.804565,115.306190 
	C70.331810,115.321495 45.858883,115.275368 21.386488,115.371399 
	C18.313158,115.383461 13.734281,114.210899 13.619254,119.165344 
	C13.501149,124.252388 18.057411,123.075897 21.160969,123.085007 
	C48.796463,123.166153 76.432220,123.157753 104.723915,123.446167 
	C105.722305,123.737465 106.064682,123.758339 106.407059,123.779213 
	C112.766815,126.228134 115.347870,131.065796 115.198837,137.647507 
	C115.062805,143.655167 111.889740,147.359467 105.543625,149.218719 
	C79.931282,149.067429 55.176739,149.007034 30.422283,149.031311 
	C29.027719,149.032669 27.633841,149.730164 26.239643,150.103668 
	C28.084995,152.143951 29.568848,155.026550 31.866615,156.012711 
	C34.780724,157.263412 38.355320,157.291428 41.645977,157.296753 
	C61.627506,157.328995 81.609253,157.192383 101.591003,157.140198 
	C107.520226,157.124710 111.874199,159.817871 114.127556,165.295013 
	C116.236938,170.422211 116.292740,175.977280 111.792747,179.510849 
	C108.679337,181.955612 104.087547,183.570038 100.106728,183.675125 
	C83.133537,184.123230 66.141869,183.871521 49.156940,183.875107 
	C47.411579,183.875473 45.666218,183.875168 43.262241,183.875168 
	C45.852905,189.483536 49.737316,191.295822 54.747978,191.333527 
	C70.233315,191.450058 85.718758,191.556641 101.203835,191.701569 
	C108.276749,191.767776 113.368034,195.259567 114.954666,201.025223 
	C116.787514,207.685577 114.374924,212.941254 107.236328,216.761749 
	C106.463646,216.638611 106.225807,216.741669 106.052513,217.018066 
	C106.052513,217.018066 105.683716,217.210770 104.996506,217.131836 
	C92.874512,217.025345 81.439728,216.997787 69.751472,216.734467 
	C68.111320,214.899521 66.724648,213.300323 65.337967,211.701126 
	C65.337967,211.701126 65.246796,211.460587 65.758087,211.471909 
	C70.338234,210.986847 74.397316,210.194260 78.478119,210.059555 
	C85.618965,209.823807 92.777252,210.122025 99.918709,209.895782 
	C101.611855,209.842148 103.267265,208.597275 104.940041,207.900360 
	C105.010437,207.711029 105.080826,207.521698 105.652214,206.949738 
	C107.210815,204.231140 108.036247,201.973801 104.350410,201.244415 
	C104.350410,201.244415 104.110420,201.340469 103.714775,200.981277 
	C91.307449,200.417755 79.296272,200.155640 67.283730,200.048782 
	C64.190559,200.021271 61.093044,200.482178 57.997524,200.718719 
	C56.560665,200.740814 55.123810,200.762909 53.010651,200.534424 
	C51.577530,200.217117 50.820709,200.150406 50.063885,200.083710 
	C49.877205,200.112274 49.690521,200.140839 49.116096,199.711075 
	C46.684547,198.534683 44.640739,197.816620 42.596935,197.098557 
	C36.900410,193.710693 33.863060,188.624939 33.193661,182.111923 
	C32.573956,176.082428 33.861340,174.713058 39.947453,174.679794 
	C58.924175,174.576065 77.900940,174.480194 96.877693,174.381348 
	C98.209419,174.374405 99.541138,174.366501 100.872871,174.361618 
	C103.579811,174.351715 106.043228,173.912308 105.980400,170.431702 
	C105.914871,166.800873 103.227539,166.886383 100.638374,166.879318 
	C79.497475,166.821671 58.354649,166.901917 37.216503,166.626434 
	C25.312815,166.471329 16.716703,159.297974 15.288776,148.885239 
	C14.828046,145.525513 14.594300,141.996536 20.034248,141.398651 
	C21.262804,141.720749 21.747910,141.920547 22.233273,141.921173 
	C48.149265,141.954422 74.065331,141.991318 99.981171,141.932236 
	C101.359467,141.929092 102.735870,141.100967 104.113159,140.656891 
	C104.113159,140.656891 104.203125,140.743637 104.480209,140.646271 
	C105.124252,139.992828 105.491203,139.436752 105.858154,138.880676 
	C105.858154,138.880676 105.999084,139.000000 106.215355,138.803223 
	C108.279831,136.921936 108.690849,135.409897 105.912498,134.280579 
	C105.412270,133.856964 104.912048,133.433365 103.852356,132.606567 
	C102.029190,131.828094 100.765739,131.126480 99.501740,131.125504 
	C71.371040,131.103806 43.240276,131.157715 15.109560,131.214081 
	C14.623104,131.215057 14.137060,131.422562 13.650824,131.533676 
	C13.650823,131.533676 13.607742,131.524048 13.486490,131.212646 
	C11.881185,130.286499 10.397130,129.671738 8.913075,129.056992 
	C8.913075,129.056992 8.975969,129.031784 8.829755,128.849213 
	C8.397697,128.470505 8.111855,128.274384 7.826011,128.078262 
	C7.486065,128.036377 7.239095,127.862465 6.967202,126.910797 
	C6.422078,122.063957 5.994851,117.862846 5.567624,113.661736 
	C5.567624,113.661736 5.612049,113.955574 5.921784,113.739830 
	C7.435255,111.944786 8.638989,110.365494 9.842725,108.786201 
	C9.842726,108.786201 9.870870,108.874718 10.259192,108.824738 
	C13.275667,108.507057 15.903233,108.013641 18.532063,108.006813 
	C42.755390,107.943901 66.979118,108.002953 91.202095,107.890892 
	C93.160194,107.881828 95.113640,106.866898 97.069244,106.319382 
	C97.486954,106.269180 97.904655,106.218987 98.804459,106.534485 
	C101.509094,106.623764 104.497330,107.090836 105.714043,105.837784 
	C106.703064,104.819214 105.568039,101.738205 105.374969,99.571831 
	C105.374977,99.571831 105.276436,99.530518 105.338425,99.379982 
	C105.400421,99.229446 105.286438,98.988899 105.286438,98.988899 
	C105.286438,98.988899 105.013855,99.108070 105.013855,99.108070 
	C104.565186,99.042870 104.116524,98.977676 103.168396,98.682251 
	C102.439705,98.225685 102.199310,98.011894 101.589165,97.617035 
	C100.247955,97.282440 99.265503,97.019478 98.282730,97.018311 
	C73.292145,96.988785 48.301491,96.973114 23.310953,97.014450 
	C21.857752,97.016853 20.405376,97.520096 18.952616,97.790253 
	C18.401609,97.705986 17.850605,97.621719 17.131115,96.920723 
	C16.383709,94.205826 15.804786,92.107658 15.225863,90.009491 
	C17.095051,78.586792 24.550846,72.495651 38.013729,72.299438 
	C39.269638,72.697838 39.748249,72.934074 40.227242,72.934860 
	C60.455688,72.968163 80.684303,73.011490 100.912323,72.922386 
	C102.199371,72.916718 103.481804,71.862526 104.766380,71.296112 
	C104.602272,69.078125 104.438171,66.860130 103.734039,64.135315 
	C101.900429,63.409550 100.609337,63.016155 99.312889,62.997662 
	C77.552620,62.687222 55.791683,62.423565 34.030891,62.149513 
	C31.253859,53.828808 36.440975,43.013229 45.528931,40.254745 
	C51.128414,38.555126 57.272404,38.253540 63.193047,38.090279 
	C75.514793,37.750500 87.850563,37.898010 100.180580,37.895348 
	C103.244713,37.894688 106.079491,37.678715 105.987938,33.603016 
	C105.896873,29.549643 102.788185,30.013138 100.174774,30.000360 
	C90.844536,29.954744 81.513748,30.019411 72.183556,29.969553 
	C65.316544,29.932859 63.845516,28.202337 65.178505,21.429832 
	C66.611717,14.148108 70.407234,8.549480 77.993515,5.541979 
	C79.314232,5.240551 80.046753,4.865321 80.779266,4.490089 
	C80.779266,4.490090 80.850029,4.626563 81.266609,4.740391 
	C92.473160,4.896499 103.263138,4.938781 114.053108,4.981062 
	C114.053108,4.981062 114.000786,5.000424 114.001785,5.411562 
	C114.018539,7.573180 114.034294,9.323661 114.050049,11.074142 
	C114.050049,11.074142 114.015297,11.004082 113.572525,11.014357 
	C107.090179,11.024631 101.050613,11.024631 95.011040,11.024631 
	C95.018829,11.457543 95.026619,11.890455 95.034401,12.323368 
	C99.634346,12.323368 104.234283,12.323368 108.834221,12.323368 
	C100.890617,12.575025 92.946785,12.820042 85.003487,13.080982 
	C80.668633,13.223384 77.403999,14.916676 75.646118,20.027155 
	C78.032715,20.133615 80.069115,20.217720 82.104805,20.316441 
	C90.276894,20.712749 98.470444,20.868816 106.613831,21.590332 
	C113.108360,22.165752 117.388153,32.270531 114.271484,39.342255 
	C113.432465,41.245991 111.841522,42.818333 110.042587,44.534500 
	C108.661957,45.069202 107.834465,45.612206 107.006973,46.155212 
	C106.524628,46.389309 106.042282,46.623402 104.914383,46.633438 
	C87.938332,46.301697 71.607880,46.180733 55.277218,46.129505 
	C54.538067,46.127182 53.796944,46.755268 53.056740,47.089729 
	C49.247276,48.429707 44.978836,49.186668 44.420219,54.791615 
	C45.758846,55.597404 46.724163,55.963223 47.690262,55.965313 
	C65.503639,56.003876 83.317162,56.016411 101.130470,55.966679 
	C102.410591,55.963104 103.689247,55.437691 104.968590,55.154915 
	C115.869415,58.667473 118.729980,69.213470 110.548477,78.120224 
	C109.665817,78.637352 109.363899,78.901482 109.061981,79.165619 
	C109.061981,79.165611 109.086609,79.095032 108.767128,79.079147 
	C107.285286,79.592613 106.122925,80.121956 104.960564,80.651299 
z"/>
<path fill="#4EECA8" opacity="1.000000" stroke="none" 
	d="
M207.041260,166.804337 
	C210.534103,169.639786 213.673538,172.336945 216.887451,174.942245 
	C220.019150,177.480896 219.542938,180.040710 216.899277,182.441818 
	C214.082886,184.999741 211.325302,187.782639 208.066330,189.626495 
	C206.396606,190.571198 203.688492,189.680542 201.449661,189.619370 
	C201.553665,187.548828 201.105164,185.221756 201.914474,183.478683 
	C202.751877,181.675049 204.809937,180.438156 206.390686,178.898193 
	C204.741318,175.296112 198.407913,174.072784 201.061050,168.864395 
	C201.751495,167.508957 204.770798,167.339828 207.041260,166.804337 
z"/>
<path fill="#4EECA8" opacity="1.000000" stroke="none" 
	d="
M129.726837,176.065125 
	C132.966873,173.160431 135.699768,170.096298 139.066437,168.102142 
	C140.888367,167.022980 144.537827,166.780777 146.040009,167.914230 
	C148.568863,169.822342 147.243179,172.717819 145.057693,174.717880 
	C143.733185,175.929993 142.245132,176.963409 140.453812,178.373734 
	C142.740921,180.448166 144.895966,181.600754 145.714523,183.371246 
	C146.530136,185.135330 146.737961,187.969971 145.812759,189.474731 
	C145.184845,190.496033 141.557114,190.911118 140.289642,190.067261 
	C136.588028,187.602798 133.204468,184.555054 130.123474,181.328033 
	C129.193253,180.353699 129.657974,178.047516 129.726837,176.065125 
z"/>
<path fill="#4FEDA9" opacity="1.000000" stroke="none" 
	d="
M126.339577,42.773952 
	C129.433273,38.492977 132.400604,34.344784 135.955933,30.783621 
	C136.797760,29.940432 140.438583,30.395386 141.309326,31.462698 
	C142.356689,32.746510 142.435364,35.547203 141.802750,37.277893 
	C141.122177,39.139847 139.131363,40.522892 137.516342,42.334614 
	C138.872604,43.788486 140.596786,44.899429 141.175964,46.440655 
	C141.933060,48.455364 141.784515,50.810406 142.025589,53.019035 
	C139.768402,53.054516 136.739563,54.032867 135.405182,52.940800 
	C132.008911,50.161240 129.370163,46.456093 126.339577,42.773952 
z"/>
<path fill="#4EF1AA" opacity="1.000000" stroke="none" 
	d="
M148.933060,217.774292 
	C147.736588,216.135300 145.572189,214.453369 145.642395,212.870560 
	C145.701187,211.545593 148.325577,209.316711 149.892700,209.246490 
	C158.199005,208.874313 166.536285,208.893921 174.847046,209.202591 
	C176.299408,209.256546 178.925201,211.468613 178.820648,212.451080 
	C178.621460,214.322784 176.843658,216.026505 174.990387,217.598969 
	C165.817337,217.523407 157.375198,217.648849 148.933060,217.774292 
z"/>
<path fill="#4DEEA8" opacity="1.000000" stroke="none" 
	d="
M179.499893,72.920479 
	C180.007614,74.809288 181.161057,76.842216 180.783585,78.533470 
	C180.552979,79.566719 177.986389,80.672600 176.439117,80.717522 
	C168.820435,80.938690 161.177719,81.065979 153.576462,80.639145 
	C151.669342,80.532051 148.896378,78.615349 148.270004,76.893982 
	C147.285843,74.189438 149.374786,72.333313 153.086609,72.315720 
	C162.375854,72.702278 170.937866,72.811378 179.499893,72.920479 
z"/>
<path fill="#4EEFA9" opacity="1.000000" stroke="none" 
	d="
M181.156952,54.735558 
	C175.782944,51.343502 175.864594,50.721546 182.535080,42.362717 
	C181.415802,40.669338 179.954468,39.032040 179.190430,37.116600 
	C178.604462,35.647625 178.195480,33.045769 178.968704,32.350971 
	C180.072433,31.359188 182.868408,30.819977 183.990936,31.549765 
	C187.277573,33.686508 190.366043,36.306938 192.955795,39.245762 
	C193.946182,40.369637 194.232086,43.717400 193.364548,44.596371 
	C189.721191,48.287613 185.519806,51.428059 181.156952,54.735558 
z"/>
<path fill="#4CEEA7" opacity="1.000000" stroke="none" 
	d="
M223.085464,74.911469 
	C223.065613,79.748184 220.725937,81.263153 215.916885,80.943161 
	C208.499832,80.449615 201.034195,80.686073 193.071625,80.176117 
	C192.240921,79.592255 191.927765,79.445152 191.614594,79.298050 
	C191.614594,79.298050 191.874420,79.162132 191.837128,78.775955 
	C191.717285,76.806335 191.634750,75.222885 191.552216,73.639442 
	C191.552216,73.639442 191.910568,73.663628 192.000717,73.582474 
	C192.368607,73.258728 192.646347,73.016144 192.924088,72.773560 
	C193.437149,72.582832 193.950211,72.392105 195.118713,72.429703 
	C199.882858,72.780083 204.007385,72.718437 208.096207,73.071114 
	C213.108246,73.503426 218.090393,74.282379 223.085464,74.911469 
z"/>
<path fill="#50EEAA" opacity="1.000000" stroke="none" 
	d="
M166.932587,41.703232 
	C164.436035,45.065723 162.433899,48.419170 159.710190,51.015720 
	C158.431137,52.235077 155.069733,52.978176 153.908005,52.158016 
	C152.606262,51.238995 151.660431,47.702934 152.421371,46.362045 
	C154.938889,41.925751 158.011581,37.699692 161.497116,33.979343 
	C162.587845,32.815132 166.394226,32.552074 167.676407,33.539707 
	C170.689713,35.860760 168.969513,38.843994 166.932587,41.703232 
z"/>
<path fill="#4AF6A9" opacity="1.000000" stroke="none" 
	d="
M127.892410,142.743134 
	C127.845039,142.428604 127.953621,142.183029 128.916489,141.975464 
	C132.401978,141.962601 135.191864,142.068619 137.975739,141.981476 
	C144.976608,141.762268 151.974731,141.455856 158.973969,141.184402 
	C159.522186,143.359146 160.070389,145.533875 159.810547,147.864044 
	C150.576508,148.013229 142.148239,147.889771 133.725525,148.053040 
	C129.851074,148.128143 127.673126,146.895370 127.892410,142.743134 
z"/>
<path fill="#4BEEA7" opacity="1.000000" stroke="none" 
	d="
M178.964233,168.872177 
	C183.805191,165.974899 186.859131,167.392715 186.978058,172.755035 
	C187.073868,177.074448 187.046555,181.415619 186.695755,185.716293 
	C186.561050,187.367905 185.379074,188.934097 184.005096,190.460724 
	C182.171936,190.291199 181.007950,190.200134 179.843979,190.109070 
	C179.843979,190.109085 179.917435,190.086563 179.773590,189.898468 
	C179.343277,189.487625 179.056808,189.264893 178.770340,189.042175 
	C178.770340,189.042175 178.903076,189.069717 178.927704,188.652863 
	C178.956284,181.781403 178.960266,175.326782 178.964233,168.872177 
z"/>
<path fill="#56DBA3" opacity="1.000000" stroke="none" 
	d="
M14.000944,131.712280 
	C14.137060,131.422562 14.623104,131.215057 15.109560,131.214081 
	C43.240276,131.157715 71.371040,131.103806 99.501740,131.125504 
	C100.765739,131.126480 102.029190,131.828094 103.577286,132.425201 
	C76.658455,132.665009 49.455189,132.705353 22.252047,132.665466 
	C19.618015,132.661606 16.984709,132.160934 14.000944,131.712280 
z"/>
<path fill="#56DBA3" opacity="1.000000" stroke="none" 
	d="
M96.603127,106.223251 
	C95.113640,106.866898 93.160194,107.881828 91.202095,107.890892 
	C66.979118,108.002953 42.755390,107.943901 18.532063,108.006813 
	C15.903233,108.013641 13.275667,108.507057 10.217897,108.803490 
	C12.912736,107.981262 16.030312,106.421608 19.162735,106.391197 
	C44.819263,106.142090 70.478554,106.177872 96.603127,106.223251 
z"/>
<path fill="#4EF6AB" opacity="1.000000" stroke="none" 
	d="
M162.767731,190.103409 
	C162.445694,190.147263 162.192657,190.035233 161.973694,189.068024 
	C161.937775,181.539108 161.936783,174.709457 161.935791,167.879822 
	C167.023926,165.451324 169.412064,166.534576 169.323318,171.707870 
	C169.219650,177.750275 168.550140,183.782974 167.301239,189.957153 
	C165.240128,190.097427 164.003937,190.100418 162.767731,190.103409 
z"/>
<path fill="#4AF9AB" opacity="1.000000" stroke="none" 
	d="
M201.247696,101.970543 
	C201.307007,101.418716 201.366318,100.866890 202.026398,100.142815 
	C204.807678,99.948570 206.988174,99.926575 209.168671,99.904579 
	C209.168671,99.904579 209.074921,99.943138 209.046860,100.342697 
	C209.003403,105.692039 209.018402,110.642166 208.960434,115.591438 
	C208.929047,118.270973 209.033569,121.672729 205.401810,121.389160 
	C204.128479,121.289742 202.445831,117.889114 202.130188,115.816231 
	C201.436646,111.261818 201.495804,106.592789 201.247696,101.970543 
z"/>
<path fill="#51E8A8" opacity="1.000000" stroke="none" 
	d="
M146.653564,119.359375 
	C143.116470,119.472427 141.818817,117.756363 141.821426,114.783661 
	C141.824051,111.813408 141.559509,108.808151 141.945328,105.888710 
	C142.119812,104.568306 143.360168,102.770691 144.525604,102.365814 
	C145.798096,101.923759 147.916855,102.376877 149.013077,103.255417 
	C152.386124,105.958626 150.877731,117.051285 146.653564,119.359375 
z"/>
<path fill="#4DF7AC" opacity="1.000000" stroke="none" 
	d="
M213.949066,149.774338 
	C209.530655,149.581985 205.112244,149.389618 200.044937,148.824585 
	C196.891083,144.513535 198.698196,143.079880 202.627823,142.972412 
	C205.082352,142.905273 207.540497,142.927322 209.996338,142.960388 
	C216.368179,143.046143 217.127625,144.367966 213.949066,149.774338 
z"/>
<path fill="#48FAA9" opacity="1.000000" stroke="none" 
	d="
M151.996048,5.129951 
	C158.369324,5.054439 164.742615,4.978927 171.563278,5.422468 
	C172.219864,8.899198 170.801178,10.106236 167.892212,10.025256 
	C164.277191,9.924621 160.654358,9.915854 157.040085,10.030701 
	C153.564499,10.141140 151.702728,8.797440 151.996048,5.129951 
z"/>
<path fill="#52EAA9" opacity="1.000000" stroke="none" 
	d="
M132.223022,80.959435 
	C128.277725,80.916595 126.423553,79.180115 127.057632,75.659203 
	C127.919434,70.873711 131.845627,71.966911 134.981323,72.095436 
	C138.266144,72.230080 139.602127,74.348549 139.181702,77.502365 
	C138.632843,81.619759 135.310486,80.728203 132.223022,80.959435 
z"/>
<path fill="#61E8B0" opacity="1.000000" stroke="none" 
	d="
M103.634201,140.694290 
	C102.735870,141.100967 101.359467,141.929092 99.981171,141.932236 
	C74.065331,141.991318 48.149265,141.954422 22.233273,141.921173 
	C21.747910,141.920547 21.262804,141.720749 20.407463,141.442245 
	C43.932106,141.180847 67.826904,141.100967 91.721573,140.991089 
	C95.533104,140.973572 99.344032,140.821548 103.634201,140.694290 
z"/>
<path fill="#64E7B1" opacity="1.000000" stroke="none" 
	d="
M19.414852,97.906197 
	C20.405376,97.520096 21.857752,97.016853 23.310953,97.014450 
	C48.301491,96.973114 73.292145,96.988785 98.282730,97.018311 
	C99.265503,97.019478 100.247955,97.282440 101.294670,97.674866 
	C101.166084,97.980095 100.973396,98.033875 100.780701,98.087646 
	C73.812828,98.065811 46.844959,98.043976 19.414852,97.906197 
z"/>
<path fill="#63E8B3" opacity="1.000000" stroke="none" 
	d="
M26.680809,150.175888 
	C27.633841,149.730164 29.027719,149.032669 30.422283,149.031311 
	C55.176739,149.007034 79.931282,149.067429 105.206665,149.159103 
	C103.645523,149.560822 101.564346,150.213547 99.481384,150.219254 
	C75.361740,150.285431 51.241821,150.253799 26.680809,150.175888 
z"/>
<path fill="#61EBB1" opacity="1.000000" stroke="none" 
	d="
M102.548645,89.111191 
	C101.727501,89.461624 100.442474,89.960449 99.156471,89.962997 
	C75.995575,90.008850 52.834560,90.001472 29.673613,89.970055 
	C28.702593,89.968735 27.732040,89.623894 26.442665,89.194618 
	C51.444141,88.976295 76.764221,89.002434 102.548645,89.111191 
z"/>
<path fill="#5BE1AC" opacity="1.000000" stroke="none" 
	d="
M31.438869,82.119965 
	C32.472420,81.437927 33.930649,80.161179 35.390678,80.159111 
	C57.337906,80.128052 79.285378,80.264801 101.603912,80.534554 
	C81.720184,80.809845 61.464893,80.867981 41.210922,81.062668 
	C38.092316,81.092644 34.979744,81.750603 31.438869,82.119965 
z"/>
<path fill="#6CE4B6" opacity="1.000000" stroke="none" 
	d="
M34.191650,62.502438 
	C55.791683,62.423565 77.552620,62.687222 99.312889,62.997662 
	C100.609337,63.016155 101.900429,63.409550 103.481468,63.898544 
	C82.877319,64.108673 61.985485,64.082520 41.094440,63.939960 
	C38.844734,63.924610 36.599644,63.233181 34.191650,62.502438 
z"/>
<path fill="#5EE4AF" opacity="1.000000" stroke="none" 
	d="
M217.487152,116.441147 
	C217.168365,112.624107 216.669617,108.802986 216.756119,104.995155 
	C216.767075,104.513382 219.894714,103.653229 221.489777,103.819344 
	C222.501358,103.924698 223.895523,105.481445 224.151031,106.606850 
	C224.617859,108.662933 224.490250,110.887581 224.391037,113.031761 
	C224.167404,117.865227 222.737717,118.737091 218.050674,116.796852 
	C222.929535,115.001152 223.659729,113.425446 221.865204,108.341301 
	C221.591141,107.564827 220.704910,107.004425 220.101822,106.344086 
	C219.421631,107.105736 218.287857,107.791901 218.146194,108.643173 
	C217.719345,111.208015 217.678528,113.837112 217.487152,116.441147 
z"/>
<path fill="#51E4A8" opacity="1.000000" stroke="none" 
	d="
M135.757523,110.259125 
	C135.562302,113.482895 134.263962,115.518524 131.164917,114.904922 
	C129.684235,114.611755 127.226227,113.067215 127.304245,112.303253 
	C127.501610,110.370728 128.421661,107.662300 129.896286,106.902206 
	C132.316193,105.654839 135.132904,106.206215 135.757523,110.259125 
z"/>
<path fill="#51E4A8" opacity="1.000000" stroke="none" 
	d="
M239.330231,108.803299 
	C238.499619,111.090378 237.934097,113.572121 236.380646,114.742172 
	C235.530014,115.382843 232.014511,114.264297 231.489380,113.118942 
	C230.794479,111.603333 231.850784,109.284813 232.154449,107.311386 
	C234.497375,107.691208 236.840302,108.071022 239.330231,108.803299 
z"/>
<path fill="#54E7A9" opacity="1.000000" stroke="none" 
	d="
M127.285080,211.531525 
	C129.753494,210.690857 132.068420,210.228165 134.383331,209.765472 
	C134.673798,211.880981 135.757324,214.373260 134.990845,215.986649 
	C134.429901,217.167389 130.797913,218.194321 129.688278,217.485077 
	C128.239868,216.559311 127.930840,213.850906 127.285080,211.531525 
z"/>
<path fill="#60DBAC" opacity="1.000000" stroke="none" 
	d="
M175.763092,141.931335 
	C179.147842,141.912033 182.160416,141.535889 185.066986,141.933945 
	C186.524902,142.133606 188.920959,143.773239 188.895981,144.708298 
	C188.850235,146.420593 187.484543,149.418854 186.385605,149.552734 
	C181.665207,150.127838 176.806320,150.178925 172.080826,149.662338 
	C170.920746,149.535492 169.074753,146.403137 169.291031,144.904663 
	C169.736847,141.815704 172.278259,140.826370 175.763092,141.931335 
M187.486084,144.679703 
	C182.581665,144.281113 177.678940,143.836227 172.766525,143.658585 
	C172.576553,143.651718 171.600586,146.800095 172.173172,147.474670 
	C174.769302,150.533188 184.984314,149.019180 187.486084,144.679703 
z"/>
<path fill="#6CE4B6" opacity="1.000000" stroke="none" 
	d="
M104.319748,71.376801 
	C103.481804,71.862526 102.199371,72.916718 100.912323,72.922386 
	C80.684303,73.011490 60.455688,72.968163 40.227242,72.934860 
	C39.748249,72.934074 39.269638,72.697838 38.446060,72.363007 
	C57.212849,72.068871 76.324516,71.999489 95.435875,71.879486 
	C98.249062,71.861824 101.060738,71.604126 104.319748,71.376801 
z"/>
<path fill="#59E7AC" opacity="1.000000" stroke="none" 
	d="
M151.616989,5.147937 
	C151.702728,8.797440 153.564499,10.141140 157.040085,10.030701 
	C160.654358,9.915854 164.277191,9.924621 167.892212,10.025256 
	C170.801178,10.106236 172.219864,8.899198 172.022858,5.530829 
	C172.671021,6.525459 174.020828,8.099710 173.739624,9.287980 
	C173.465439,10.446581 171.560501,11.957424 170.307648,12.019252 
	C164.708588,12.295561 159.045990,12.517471 153.485672,11.963128 
	C148.871246,11.503085 149.284637,8.344932 151.616989,5.147937 
z"/>
<path fill="#61DEAE" opacity="1.000000" stroke="none" 
	d="
M201.145798,102.433365 
	C201.495804,106.592789 201.436646,111.261818 202.130188,115.816231 
	C202.445831,117.889114 204.128479,121.289742 205.401810,121.389160 
	C209.033569,121.672729 208.929047,118.270973 208.960434,115.591438 
	C209.018402,110.642166 209.003403,105.692039 209.068604,100.296921 
	C209.390472,106.709183 209.896469,113.572937 209.717056,120.418716 
	C209.685059,121.638649 206.473816,123.997169 205.326370,123.679291 
	C203.609100,123.203575 201.361908,120.922684 201.201202,119.232635 
	C200.687592,113.831009 201.031250,108.347862 201.145798,102.433365 
z"/>
<path fill="#5EEDB3" opacity="1.000000" stroke="none" 
	d="
M104.525543,54.997330 
	C103.689247,55.437691 102.410591,55.963104 101.130470,55.966679 
	C83.317162,56.016411 65.503639,56.003876 47.690262,55.965313 
	C46.724163,55.963223 45.758846,55.597404 44.489105,55.146919 
	C64.150864,54.875210 84.116684,54.857483 104.525543,54.997330 
z"/>
<path fill="#5EDDAB" opacity="1.000000" stroke="none" 
	d="
M138.403900,12.117804 
	C135.499069,12.143707 132.909927,12.574765 130.600418,11.958278 
	C129.145828,11.569998 127.019470,9.489355 127.144470,8.389502 
	C127.327080,6.782704 128.978409,4.772099 130.525421,4.047482 
	C132.156387,3.283548 134.485153,3.466589 136.352402,3.904257 
	C138.181076,4.332884 141.089630,5.435861 141.234665,6.542836 
	C141.458939,8.254440 139.735397,10.221241 138.403900,12.117804 
M129.217087,9.612754 
	C132.084213,9.798706 134.968292,10.206639 137.804672,9.989954 
	C138.397141,9.944693 138.813431,7.593372 139.310913,6.304753 
	C136.813644,6.201175 134.261185,5.753399 131.842743,6.141275 
	C130.658615,6.331191 129.723602,8.074335 129.217087,9.612754 
z"/>
<path fill="#4EE5A6" opacity="1.000000" stroke="none" 
	d="
M190.858063,115.008492 
	C187.309601,114.664581 185.300507,112.901215 186.221237,109.795433 
	C186.598465,108.523056 189.301163,106.941734 190.602081,107.204361 
	C192.094360,107.505630 193.899551,109.548706 194.235641,111.120224 
	C194.457245,112.156448 192.326370,113.695786 190.858063,115.008492 
z"/>
<path fill="#55D3A2" opacity="1.000000" stroke="none" 
	d="
M214.323212,149.755157 
	C217.127625,144.367966 216.368179,143.046143 209.996338,142.960388 
	C207.540497,142.927322 205.082352,142.905273 202.627823,142.972412 
	C198.698196,143.079880 196.891083,144.513535 199.628235,148.704742 
	C198.880203,147.703598 197.079605,146.405899 197.143463,145.207520 
	C197.211472,143.930801 198.955429,141.799164 200.120392,141.691376 
	C204.740067,141.263962 209.429733,141.311935 214.068970,141.590881 
	C215.119476,141.654053 216.978119,143.452347 216.885986,144.275162 
	C216.675644,146.153564 215.487991,147.922546 214.323212,149.755157 
z"/>
<path fill="#49FAAA" opacity="1.000000" stroke="none" 
	d="
M171.912277,111.122925 
	C171.251358,106.962036 172.032257,104.008263 177.641922,105.344681 
	C177.444321,109.416573 179.495682,113.509331 175.806152,116.509735 
	C174.402634,114.568100 173.157455,112.845512 171.912277,111.122925 
z"/>
<path fill="#5EEBB1" opacity="1.000000" stroke="none" 
	d="
M53.514931,47.167385 
	C53.796944,46.755268 54.538067,46.127182 55.277218,46.129505 
	C71.607880,46.180733 87.938332,46.301697 104.637985,46.593853 
	C93.451057,46.947231 81.895287,47.144878 70.338737,47.272415 
	C64.884293,47.332611 59.428371,47.258369 53.514931,47.167385 
z"/>
<path fill="#5AE1AA" opacity="1.000000" stroke="none" 
	d="
M58.460213,200.805786 
	C61.093044,200.482178 64.190559,200.021271 67.283730,200.048782 
	C79.296272,200.155640 91.307449,200.417755 103.644836,200.872589 
	C88.954666,201.046356 73.938789,200.969604 58.460213,200.805786 
z"/>
<path fill="#5AE1AA" opacity="1.000000" stroke="none" 
	d="
M104.544052,208.039948 
	C103.267265,208.597275 101.611855,209.842148 99.918709,209.895782 
	C92.777252,210.122025 85.618965,209.823807 78.478119,210.059555 
	C74.397316,210.194260 70.338234,210.986847 65.866119,211.402130 
	C67.480392,210.542374 69.481293,209.146149 71.518295,209.091293 
	C80.624184,208.846161 89.740723,209.025528 98.852509,208.946594 
	C100.619774,208.931290 102.382980,208.447327 104.544052,208.039948 
z"/>
<path fill="#61E8B0" opacity="1.000000" stroke="none" 
	d="
M171.797440,111.525040 
	C173.157455,112.845512 174.402634,114.568100 175.806152,116.509735 
	C179.495682,113.509331 177.444321,109.416573 178.062042,105.480911 
	C180.762009,107.242867 181.030762,115.931602 178.251236,117.360130 
	C176.968689,118.019279 174.341492,118.262337 173.711136,117.518517 
	C172.509247,116.100235 172.302490,113.838638 171.797440,111.525040 
z"/>
<path fill="#61E8B0" opacity="1.000000" stroke="none" 
	d="
M127.613091,143.022537 
	C127.673126,146.895370 129.851074,148.128143 133.725525,148.053040 
	C142.148239,147.889771 150.576508,148.013229 159.461639,148.041626 
	C157.885284,148.436676 155.854553,149.096954 153.813431,149.130722 
	C146.555267,149.250824 139.293411,149.125717 132.033249,149.157455 
	C127.936943,149.175369 126.194130,147.426071 127.613091,143.022537 
z"/>
<path fill="#6CE4B6" opacity="1.000000" stroke="none" 
	d="
M70.004951,216.970215 
	C81.439728,216.997787 92.874512,217.025345 104.792397,217.091492 
	C102.230209,217.418716 99.187538,217.917786 96.139122,217.955658 
	C87.733887,218.060089 79.326256,217.971542 70.463287,217.669662 
	C70.006996,217.380005 70.004951,216.970230 70.004951,216.970215 
z"/>
<path fill="#60E5B1" opacity="1.000000" stroke="none" 
	d="
M157.866913,122.125664 
	C157.580032,114.759262 156.671585,107.340256 157.288544,100.050346 
	C157.565292,96.780228 161.490646,97.288475 164.255524,99.289795 
	C164.290085,99.772896 163.958755,100.040916 163.535614,100.025589 
	C159.235153,99.496513 157.757080,101.161720 157.946365,105.066605 
	C158.217896,110.668739 158.108429,116.289337 158.085510,121.954727 
	C158.009384,122.007401 157.866913,122.125664 157.866913,122.125664 
z"/>
<path fill="#65E3AF" opacity="1.000000" stroke="none" 
	d="
M113.794357,4.630784 
	C103.263138,4.938781 92.473160,4.896499 81.196114,4.771029 
	C91.651230,4.552061 102.593414,4.416284 113.794357,4.630784 
z"/>
<path fill="#66DAAE" opacity="1.000000" stroke="none" 
	d="
M223.101868,74.511932 
	C218.090393,74.282379 213.108246,73.503426 208.096207,73.071114 
	C204.007385,72.718437 199.882858,72.780083 195.400055,72.492058 
	C203.047531,72.214050 211.070206,72.001816 219.089676,72.087769 
	C220.439621,72.102234 221.775742,73.404922 223.101868,74.511932 
z"/>
<path fill="#61EBB1" opacity="1.000000" stroke="none" 
	d="
M158.526245,141.041443 
	C151.974731,141.455856 144.976608,141.762268 137.975739,141.981476 
	C135.191864,142.068619 132.401978,141.962601 129.120911,141.922028 
	C130.997864,141.515350 133.364761,140.833878 135.740326,140.802124 
	C143.184631,140.702606 150.632217,140.847977 158.526245,141.041443 
z"/>
<path fill="#6CE4B6" opacity="1.000000" stroke="none" 
	d="
M149.401489,217.866470 
	C157.375198,217.648849 165.817337,217.523407 174.622803,217.590607 
	C166.614059,217.841690 158.241989,217.900162 149.401489,217.866470 
z"/>
<path fill="#6CDCB2" opacity="1.000000" stroke="none" 
	d="
M179.154266,72.616264 
	C170.937866,72.811378 162.375854,72.702278 153.463852,72.397636 
	C161.678802,72.238747 170.243729,72.275398 179.154266,72.616264 
z"/>
<path fill="#65E3AF" opacity="1.000000" stroke="none" 
	d="
M109.228775,12.458884 
	C104.234283,12.323368 99.634346,12.323368 95.034401,12.323368 
	C95.026619,11.890455 95.018829,11.457543 95.011040,11.024631 
	C101.050613,11.024631 107.090179,11.024631 113.603043,11.038827 
	C113.646347,11.383781 113.216354,11.714539 112.328949,12.047632 
	C111.644234,12.075518 111.422806,12.126563 111.207253,12.203104 
	C110.679276,12.333536 110.151299,12.463968 109.228775,12.458884 
z"/>
<path fill="#56DBA3" opacity="1.000000" stroke="none" 
	d="
M105.481033,99.933533 
	C105.568039,101.738205 106.703064,104.819214 105.714043,105.837784 
	C104.497330,107.090836 101.509094,106.623764 99.113831,106.605270 
	C102.608398,105.909569 106.919884,106.220520 105.481033,99.933533 
z"/>
<path fill="#60E5B1" opacity="1.000000" stroke="none" 
	d="
M164.457855,99.641525 
	C164.710129,106.880852 164.794647,114.251556 164.466248,121.843781 
	C164.053329,122.065308 163.850250,121.902359 163.881943,121.443184 
	C163.928680,114.002975 163.943726,107.021950 163.958755,100.040916 
	C163.958755,100.040916 164.290085,99.772896 164.457855,99.641525 
z"/>
<path fill="#60E5B1" opacity="1.000000" stroke="none" 
	d="
M161.601761,168.158173 
	C161.936783,174.709457 161.937775,181.539108 161.911560,188.859955 
	C161.678802,182.379608 161.473267,175.408081 161.601761,168.158173 
z"/>
<path fill="#56DBA3" opacity="1.000000" stroke="none" 
	d="
M5.326516,113.957848 
	C5.994851,117.862846 6.422078,122.063957 6.912167,126.682846 
	C3.301260,123.266129 3.579495,118.850334 5.326516,113.957848 
z"/>
<path fill="#6CE4B6" opacity="1.000000" stroke="none" 
	d="
M178.595306,169.113953 
	C178.960266,175.326782 178.956284,181.781403 178.911636,188.718719 
	C178.656082,182.586197 178.441223,175.970963 178.595306,169.113953 
z"/>
<path fill="#5AE1AA" opacity="1.000000" stroke="none" 
	d="
M69.751472,216.734482 
	C70.004951,216.970230 70.006996,217.380005 70.001114,217.584808 
	C65.842995,218.280502 64.522957,216.170868 65.184380,212.042007 
	C66.724648,213.300323 68.111320,214.899521 69.751472,216.734482 
z"/>
<path fill="#61DEAE" opacity="1.000000" stroke="none" 
	d="
M209.061020,99.527908 
	C206.988174,99.926575 204.807678,99.948570 202.253510,99.971260 
	C203.857071,96.418114 206.343781,97.255150 209.061020,99.527908 
z"/>
<path fill="#56DBA3" opacity="1.000000" stroke="none" 
	d="
M9.515782,108.870491 
	C8.638989,110.365494 7.435255,111.944786 5.888238,113.593002 
	C6.759585,112.092865 7.974213,110.523827 9.515782,108.870491 
z"/>
<path fill="#5AE1AA" opacity="1.000000" stroke="none" 
	d="
M42.824291,197.377609 
	C44.640739,197.816620 46.684547,198.534683 48.868912,199.572693 
	C47.023529,199.147324 45.037586,198.401993 42.824291,197.377609 
z"/>
<path fill="#61E8B0" opacity="1.000000" stroke="none" 
	d="
M105.928993,134.664856 
	C108.690849,135.409897 108.279831,136.921936 106.145844,138.742798 
	C105.888535,137.602448 105.917007,136.325790 105.928993,134.664856 
z"/>
<path fill="#64E7B1" opacity="1.000000" stroke="none" 
	d="
M15.116696,90.403366 
	C15.804786,92.107658 16.383709,94.205826 16.976837,96.679489 
	C16.329872,94.969070 15.668701,92.883156 15.116696,90.403366 
z"/>
<path fill="#5AE1AA" opacity="1.000000" stroke="none" 
	d="
M104.548325,201.531754 
	C108.036247,201.973801 107.210815,204.231140 105.883026,206.753448 
	C105.323975,205.232895 105.035110,203.525986 104.548325,201.531754 
z"/>
<path fill="#66DAAE" opacity="1.000000" stroke="none" 
	d="
M191.311371,73.848038 
	C191.634750,75.222885 191.717285,76.806335 191.717941,78.861359 
	C191.447556,77.574165 191.259033,75.815392 191.311371,73.848038 
z"/>
<path fill="#56DBA3" opacity="1.000000" stroke="none" 
	d="
M9.078323,129.358398 
	C10.397130,129.671738 11.881185,130.286499 13.483181,131.234467 
	C12.148607,130.931732 10.696090,130.295776 9.078323,129.358398 
z"/>
<path fill="#65E3AF" opacity="1.000000" stroke="none" 
	d="
M114.386559,10.875110 
	C114.034294,9.323661 114.018539,7.573180 114.010353,5.385016 
	C114.252975,6.856915 114.488022,8.766496 114.386559,10.875110 
z"/>
<path fill="#5BE1AC" opacity="1.000000" stroke="none" 
	d="
M105.290001,80.689667 
	C106.122925,80.121956 107.285286,79.592613 108.801552,79.093712 
	C107.976784,79.658775 106.798111,80.193405 105.290001,80.689667 
z"/>
<path fill="#5EEBB1" opacity="1.000000" stroke="none" 
	d="
M107.346237,46.148350 
	C107.834465,45.612206 108.661957,45.069202 109.725815,44.655369 
	C109.203293,45.236855 108.444405,45.689175 107.346237,46.148350 
z"/>
<path fill="#60E5B1" opacity="1.000000" stroke="none" 
	d="
M163.016235,190.380188 
	C164.003937,190.100418 165.240128,190.097427 166.936005,190.143082 
	C166.018707,190.346817 164.641739,190.501892 163.016235,190.380188 
z"/>
<path fill="#6CE4B6" opacity="1.000000" stroke="none" 
	d="
M180.097198,190.376907 
	C181.007950,190.200134 182.171936,190.291199 183.649292,190.540314 
	C182.758606,190.680481 181.554520,190.662613 180.097198,190.376907 
z"/>
<path fill="#60E5B1" opacity="1.000000" stroke="none" 
	d="
M163.289062,123.306862 
	C161.996857,123.394478 160.704651,123.482094 159.227432,123.246216 
	C159.042419,122.922722 159.099487,122.823143 159.481659,122.847641 
	C160.882843,122.873222 161.901840,122.874321 163.010925,122.984970 
	C163.100998,123.094513 163.289062,123.306862 163.289062,123.306862 
z"/>
<path fill="#5BE1AC" opacity="1.000000" stroke="none" 
	d="
M25.899590,88.452301 
	C25.908619,87.991776 25.825119,87.204887 25.963552,86.230835 
	C26.059347,86.737762 25.933205,87.431847 25.899590,88.452301 
z"/>
<path fill="#65E3AF" opacity="1.000000" stroke="none" 
	d="
M80.421646,4.531200 
	C80.046753,4.865321 79.314232,5.240551 78.326401,5.488612 
	C78.735397,5.098398 79.399712,4.835354 80.421646,4.531200 
z"/>
<path fill="#5AE1AA" opacity="1.000000" stroke="none" 
	d="
M50.312874,200.235046 
	C50.820709,200.150406 51.577530,200.217117 52.596451,200.408798 
	C52.092983,200.484650 51.327419,200.435516 50.312874,200.235046 
z"/>
<path fill="#5BE1AC" opacity="1.000000" stroke="none" 
	d="
M27.719036,84.424301 
	C27.842569,84.135300 28.201687,83.696594 28.855549,83.205650 
	C28.751738,83.527138 28.353180,83.900871 27.719036,84.424301 
z"/>
<path fill="#5BE1AC" opacity="1.000000" stroke="none" 
	d="
M26.357380,86.014053 
	C26.409847,85.658272 26.703096,85.148079 27.291348,84.544952 
	C27.256952,84.921227 26.927557,85.390434 26.357380,86.014053 
z"/>
<path fill="#56DBA3" opacity="1.000000" stroke="none" 
	d="
M101.040497,98.248367 
	C100.973396,98.033875 101.166084,97.980095 101.653275,97.868477 
	C102.199310,98.011894 102.439705,98.225685 102.832413,98.628296 
	C102.430679,98.672752 101.865486,98.540916 101.040497,98.248367 
z"/>
<path fill="#61E8B0" opacity="1.000000" stroke="none" 
	d="
M105.589890,139.068878 
	C105.491203,139.436752 105.124252,139.992828 104.432724,140.686890 
	C104.512642,140.302277 104.917130,139.779678 105.589890,139.068878 
z"/>
<path fill="#66DAAE" opacity="1.000000" stroke="none" 
	d="
M192.635803,72.810539 
	C192.646347,73.016144 192.368607,73.258728 191.822083,73.582901 
	C191.818054,73.392174 192.082779,73.119843 192.635803,72.810539 
z"/>
<path fill="#4BF2A8" opacity="1.000000" stroke="none" 
	d="
M111.381386,12.279334 
	C111.422806,12.126563 111.644234,12.075518 112.043869,12.037239 
	C112.054184,12.251125 111.833961,12.361477 111.381386,12.279334 
z"/>
<path fill="#6CE4B6" opacity="1.000000" stroke="none" 
	d="
M106.311264,217.070312 
	C106.225807,216.741669 106.463646,216.638611 106.893112,216.777832 
	C106.870140,216.938690 106.720085,217.030609 106.311264,217.070312 
z"/>
<path fill="#6CE4B6" opacity="1.000000" stroke="none" 
	d="
M178.852890,189.327667 
	C179.056808,189.264893 179.343277,189.487625 179.782639,189.935791 
	C179.602173,189.978546 179.268799,189.795853 178.852890,189.327667 
z"/>
<path fill="#60E5B1" opacity="1.000000" stroke="none" 
	d="
M164.151703,122.150574 
	C164.086823,122.526779 163.923569,122.817726 163.524689,123.207764 
	C163.289062,123.306862 163.100998,123.094513 163.153351,122.811470 
	C163.404144,122.302841 163.618988,122.094154 163.850250,121.902359 
	C163.850250,121.902359 164.053329,122.065308 164.151703,122.150574 
z"/>
<path fill="#5BE1AC" opacity="1.000000" stroke="none" 
	d="
M109.375542,79.112572 
	C109.363899,78.901482 109.665817,78.637352 110.249481,78.262833 
	C110.250511,78.454803 109.969803,78.757164 109.375542,79.112572 
z"/>
<path fill="#66DAAE" opacity="1.000000" stroke="none" 
	d="
M191.746994,79.542709 
	C191.927765,79.445152 192.240921,79.592255 192.722015,79.938461 
	C192.553085,80.020828 192.216248,79.904091 191.746994,79.542709 
z"/>
<path fill="#5BE1AC" opacity="1.000000" stroke="none" 
	d="
M29.435495,83.109207 
	C29.448061,82.910744 29.791332,82.644501 30.447502,82.268364 
	C30.429003,82.452789 30.097601,82.747116 29.435495,83.109207 
z"/>
<path fill="#60E5B1" opacity="1.000000" stroke="none" 
	d="
M159.012634,122.971779 
	C158.671646,122.886948 158.360428,122.753067 157.958069,122.372421 
	C157.866913,122.125664 158.009384,122.007401 158.256348,122.092537 
	C158.724899,122.371727 158.923615,122.586884 159.099487,122.823143 
	C159.099487,122.823143 159.042419,122.922722 159.012634,122.971779 
z"/>
<path fill="#56DBA3" opacity="1.000000" stroke="none" 
	d="
M105.024979,99.235046 
	C105.013855,99.108070 105.286438,98.988899 105.286438,98.988899 
	C105.286438,98.988899 105.400421,99.229446 105.341919,99.326668 
	C105.283424,99.423889 105.036102,99.362030 105.024979,99.235046 
z"/>
<path fill="#56DBA3" opacity="1.000000" stroke="none" 
	d="
M7.917816,128.342087 
	C8.111855,128.274384 8.397697,128.470505 8.833161,128.882904 
	C8.658395,128.934769 8.334008,128.770340 7.917816,128.342087 
z"/>
<path fill="#43C08F" opacity="1.000000" stroke="none" 
	d="
M106.211670,123.599213 
	C106.064682,123.758339 105.722305,123.737465 105.182541,123.543320 
	C105.328865,123.386429 105.672577,123.402824 106.211670,123.599213 
z"/>
<path fill="#48FAA9" opacity="1.000000" stroke="none" 
	d="
M217.515778,116.455276 
	C217.678528,113.837112 217.719345,111.208015 218.146194,108.643173 
	C218.287857,107.791901 219.421631,107.105736 220.101822,106.344086 
	C220.704910,107.004425 221.591141,107.564827 221.865204,108.341301 
	C223.659729,113.425446 222.929535,115.001152 217.987061,116.408051 
	C217.568222,116.528610 217.544373,116.469406 217.515778,116.455276 
z"/>
<path fill="#4BF8AB" opacity="1.000000" stroke="none" 
	d="
M187.572052,145.054382 
	C184.984314,149.019180 174.769302,150.533188 172.173172,147.474670 
	C171.600586,146.800095 172.576553,143.651718 172.766525,143.658585 
	C177.678940,143.836227 182.581665,144.281113 187.572052,145.054382 
z"/>
<path fill="#4AF9AB" opacity="1.000000" stroke="none" 
	d="
M128.946472,9.363624 
	C129.723602,8.074335 130.658615,6.331191 131.842743,6.141275 
	C134.261185,5.753399 136.813644,6.201175 139.310913,6.304753 
	C138.813431,7.593372 138.397141,9.944693 137.804672,9.989954 
	C134.968292,10.206639 132.084213,9.798706 128.946472,9.363624 
z"/>
<path fill="#49FAAA" opacity="1.000000" stroke="none" 
	d="
M159.481659,122.847641 
	C158.923615,122.586884 158.724899,122.371727 158.332489,122.039864 
	C158.108429,116.289337 158.217896,110.668739 157.946365,105.066605 
	C157.757080,101.161720 159.235153,99.496513 163.535614,100.025589 
	C163.943726,107.021950 163.928680,114.002975 163.881943,121.443184 
	C163.618988,122.094154 163.404144,122.302841 163.063263,122.701920 
	C161.901840,122.874321 160.882843,122.873222 159.481659,122.847641 
z"/>
</svg>